<?xml version="1.0" encoding="UTF-8"?>
<svg id="_Слой_2" data-name="Слой 2" xmlns="http://www.w3.org/2000/svg" viewBox="0 0 150 150">
  <defs>
    <style>
      .cls-1 {
        fill: #133441;
      }

      .cls-1, .cls-2, .cls-3, .cls-4, .cls-5 {
        stroke-width: 0px;
      }

      .cls-2 {
        fill: #cff3f7;
      }

      .cls-3 {
        fill: #def5f7;
      }

      .cls-4 {
        fill: #ace2e6;
      }

      .cls-5 {
        fill: #fff;
      }
    </style>
  </defs>
  <g id="Layer_1" data-name="Layer 1">
    <g>
      <g>
        <circle class="cls-3" cx="75" cy="75" r="75" transform="translate(-31.07 75) rotate(-45)"/>
        <circle class="cls-2" cx="75" cy="75" r="71.78" transform="translate(-31.07 75) rotate(-45)"/>
        <path class="cls-4" d="M75,116.58c-34.64,0-63.5-24.74-69.89-57.51-.87,4.44-1.33,9.02-1.33,13.71,0,39.33,31.89,71.22,71.22,71.22s71.22-31.89,71.22-71.22c0-4.69-.47-9.27-1.33-13.71-6.39,32.77-35.25,57.51-69.89,57.51Z"/>
        <path class="cls-5" d="M68.55,17.83c2.32,6.27-4.69,12.16-14.25,15.69-9.56,3.53-18.04,3.37-20.36-2.89-2.32-6.27,3.54-14.21,13.1-17.74,9.56-3.53,19.19-1.32,21.51,4.95Z"/>
        <ellipse class="cls-5" cx="24.62" cy="44.2" rx="6.71" ry="5.61" transform="translate(-24.4 31.68) rotate(-46.55)"/>
        <path class="cls-5" d="M124.68,110.76c2.35,2.24,1.81,6.62-1.2,9.79-3.01,3.16-7.35,3.9-9.7,1.66-2.35-2.24-1.81-6.62,1.2-9.79,3.01-3.16,7.35-3.9,9.7-1.66Z"/>
      </g>
      <g>
        <g>
          <path class="cls-5" d="M122.97,76.07c0,4.26-3.45,7.71-7.71,7.71s-7.71-3.46-7.71-7.71,3.45-7.71,7.71-7.71,7.71,3.45,7.71,7.71Z"/>
          <path class="cls-5" d="M46.39,76.07c0,4.26-3.46,7.71-7.71,7.71s-7.71-3.46-7.71-7.71,3.45-7.71,7.71-7.71,7.71,3.45,7.71,7.71Z"/>
        </g>
        <g>
          <path class="cls-1" d="M122.97,75.66c0,4.26-3.45,7.72-7.71,7.72s-7.71-3.46-7.71-7.72,3.45-7.71,7.71-7.71,7.71,3.45,7.71,7.71Z"/>
          <path class="cls-1" d="M46.39,75.66c0,4.26-3.46,7.72-7.71,7.72s-7.71-3.46-7.71-7.72,3.45-7.71,7.71-7.71,7.71,3.45,7.71,7.71Z"/>
        </g>
        <path class="cls-5" d="M76.54,104.23c10.64,0,18.4,7.73,18.52,7.85.84.86.83,2.25-.03,3.09-.86.84-2.25.83-3.09-.03-.59-.6-14.63-14.44-30,.06-.88.83-2.26.79-3.09-.09-.83-.88-.79-2.26.09-3.09,6.19-5.84,12.26-7.79,17.6-7.79Z"/>
        <path class="cls-1" d="M76.54,103.86c10.64,0,18.4,7.73,18.52,7.85.84.86.83,2.25-.03,3.09-.86.85-2.25.83-3.09-.03-.59-.6-14.63-14.44-30,.06-.88.83-2.26.79-3.09-.09-.83-.88-.79-2.26.09-3.09,6.19-5.84,12.26-7.79,17.6-7.79Z"/>
      </g>
    </g>
  </g>
</svg>