<?xml version="1.0" encoding="UTF-8"?>
<svg id="_Слой_2" data-name="Слой 2" xmlns="http://www.w3.org/2000/svg" viewBox="0 0 150 150">
  <defs>
    <style>
      .cls-1 {
        fill: #133441;
      }

      .cls-1, .cls-2, .cls-3, .cls-4, .cls-5 {
        stroke-width: 0px;
      }

      .cls-2 {
        fill: #cff3f7;
      }

      .cls-3 {
        fill: #def5f7;
      }

      .cls-4 {
        fill: #ace2e6;
      }

      .cls-5 {
        fill: #fff;
      }
    </style>
  </defs>
  <g id="Layer_1" data-name="Layer 1">
    <g>
      <g>
        <circle class="cls-3" cx="75" cy="75" r="75"/>
        <circle class="cls-2" cx="75" cy="75" r="71.78"/>
        <path class="cls-4" d="M75,116.58c-34.64,0-63.5-24.74-69.89-57.51-.87,4.44-1.33,9.02-1.33,13.71,0,39.33,31.89,71.22,71.22,71.22s71.22-31.89,71.22-71.22c0-4.69-.47-9.27-1.33-13.71-6.39,32.77-35.25,57.51-69.89,57.51Z"/>
        <path class="cls-5" d="M68.55,17.83c2.32,6.27-4.69,12.16-14.25,15.69-9.56,3.53-18.04,3.37-20.36-2.89-2.32-6.27,3.54-14.21,13.1-17.74,9.56-3.53,19.19-1.32,21.51,4.95Z"/>
        <path class="cls-5" d="M29.22,39.31c2.26,2.11,2.04,6.02-.5,8.72-2.54,2.7-6.43,3.18-8.69,1.07-2.26-2.11-2.04-6.02.5-8.72,2.54-2.7,6.43-3.18,8.69-1.07Z"/>
        <ellipse class="cls-5" cx="119.22" cy="116.48" rx="7.9" ry="5.88" transform="translate(-47.33 122.79) rotate(-46.5)"/>
      </g>
      <g>
        <g>
          <path class="cls-5" d="M123.82,72.19c0,4.26-3.45,7.72-7.71,7.72s-7.71-3.46-7.71-7.72,3.45-7.71,7.71-7.71,7.71,3.45,7.71,7.71Z"/>
          <path class="cls-5" d="M47.23,72.19c0,4.26-3.46,7.72-7.71,7.72s-7.71-3.46-7.71-7.72,3.45-7.71,7.71-7.71,7.71,3.45,7.71,7.71Z"/>
        </g>
        <path class="cls-1" d="M123.82,71.79c0,4.26-3.45,7.72-7.71,7.72s-7.71-3.46-7.71-7.72,3.45-7.71,7.71-7.71,7.71,3.45,7.71,7.71Z"/>
        <path class="cls-1" d="M47.23,71.79c0,4.26-3.46,7.72-7.71,7.72s-7.71-3.46-7.71-7.72,3.45-7.71,7.71-7.71,7.71,3.45,7.71,7.71Z"/>
      </g>
      <path class="cls-5" d="M99.94,97.73c-3.77-2.84-13.32-6.5-22.5-.02-.08.06-7.98,5.7-16.35-.05-1.2-.82-2.83-.52-3.65.68-.82,1.19-.52,2.83.68,3.65,3.75,2.57,7.56,3.49,11.01,3.49,4.96,0,9.18-1.9,11.37-3.51,8.24-5.82,15.94-.3,16.29-.04,1.16.86,2.8.63,3.67-.52.87-1.16.64-2.8-.52-3.68Z"/>
      <path class="cls-1" d="M99.94,97.45c-3.77-2.84-13.32-6.5-22.5-.02-.08.06-7.98,5.7-16.35-.05-1.2-.82-2.83-.52-3.65.68-.82,1.2-.52,2.83.68,3.65,3.75,2.57,7.56,3.49,11.01,3.49,4.96,0,9.18-1.9,11.37-3.51,8.24-5.81,15.94-.3,16.29-.04,1.16.86,2.8.63,3.67-.52.87-1.16.64-2.8-.52-3.68Z"/>
    </g>
  </g>
</svg>