<?xml version="1.0" encoding="UTF-8"?>
<svg xmlns="http://www.w3.org/2000/svg" xmlns:xlink="http://www.w3.org/1999/xlink" viewBox="0 0 150 150">
  <defs>
    <style>
      .cls-1 {
        fill: #133441;
      }

      .cls-1, .cls-2, .cls-3, .cls-4, .cls-5, .cls-6, .cls-7, .cls-8, .cls-9 {
        stroke-width: 0px;
      }

      .cls-2 {
        fill: #008abd;
      }

      .cls-3 {
        fill: url(#radial-gradient);
      }

      .cls-4 {
        fill: #cff3f7;
      }

      .cls-5 {
        fill: #def5f7;
      }

      .cls-6 {
        fill: #febb14;
        mix-blend-mode: soft-light;
      }

      .cls-7 {
        fill: #ace2e6;
      }

      .cls-10 {
        isolation: isolate;
      }

      .cls-8 {
        fill: #00a6ed;
      }

      .cls-9 {
        fill: #fff;
      }
    </style>
    <radialGradient id="radial-gradient" cx="81.95" cy="124.67" fx="81.95" fy="124.67" r="30.48" gradientUnits="userSpaceOnUse">
      <stop offset=".43" stop-color="#bd3e26"/>
      <stop offset="1" stop-color="#8c2e1c"/>
    </radialGradient>
  </defs>
  <g class="cls-10">
    <g id="_Слой_2" data-name="Слой 2">
      <g id="Layer_1" data-name="Layer 1">
        <g>
          <g>
            <circle class="cls-5" cx="75" cy="75" r="75" transform="translate(-31.07 75) rotate(-45)"/>
            <circle class="cls-4" cx="75" cy="75" r="71.78" transform="translate(-31.07 75) rotate(-45)"/>
            <path class="cls-7" d="M75,116.58c-34.64,0-63.5-24.74-69.89-57.51-.87,4.44-1.33,9.02-1.33,13.71,0,39.33,31.89,71.22,71.22,71.22s71.22-31.89,71.22-71.22c0-4.69-.47-9.27-1.33-13.71-6.39,32.77-35.25,57.51-69.89,57.51Z"/>
            <path class="cls-9" d="M68.55,17.83c2.32,6.27-4.69,12.16-14.25,15.69-9.56,3.53-18.04,3.37-20.36-2.89-2.32-6.27,3.54-14.21,13.1-17.74,9.56-3.53,19.19-1.32,21.51,4.95Z"/>
            <path class="cls-9" d="M29.22,39.31c2.26,2.11,2.04,6.02-.5,8.72-2.54,2.7-6.43,3.18-8.69,1.07-2.26-2.11-2.04-6.02.5-8.72,2.54-2.7,6.43-3.18,8.69-1.07Z"/>
            <path class="cls-9" d="M124.68,110.76c2.35,2.24,1.81,6.62-1.2,9.79-3.01,3.16-7.35,3.9-9.7,1.66-2.35-2.24-1.81-6.62,1.2-9.79,3.01-3.16,7.35-3.9,9.7-1.66Z"/>
          </g>
          <g>
            <g>
              <path class="cls-1" d="M26.78,82.6c-.56-2.94,5.88-5.25,14.08-6.81,8.2-1.56,15.04-1.78,15.6,1.16.56,2.94-6.55,1.8-14.74,3.36-8.19,1.56-14.39,5.23-14.94,2.29Z"/>
              <path class="cls-1" d="M101.26,76.91c.35-2.97,7.21-3.34,15.5-2.35,8.28.99,14.86,2.95,14.51,5.92-.36,2.98-6.78-.26-15.07-1.25-8.29-.99-15.29.65-14.94-2.32Z"/>
              <path class="cls-3" d="M59,100.46s8.3,5.84,21.66,4.71c11.94-1.02,20.27-6.67,20.27-6.67,0,0,2.62,15.72-20.49,16.92-21.46,1.11-21.44-14.95-21.44-14.95Z"/>
            </g>
            <path class="cls-6" d="M46.74,54.47c0,9.88-8.01,17.89-17.89,17.89s-17.88-8.01-17.88-17.89S28.85,4.14,28.85,4.14c0,0,17.89,40.45,17.89,50.33Z"/>
            <g>
              <path class="cls-8" d="M46.39,53.48c0,9.87-8.01,17.88-17.89,17.88s-17.89-8.01-17.89-17.88S28.5,3.15,28.5,3.15c0,0,17.89,40.45,17.89,50.33Z"/>
              <path class="cls-2" d="M40.62,62.91c-5.13,6.65-13.41,8.86-18.5,4.94-5.09-3.93-2.14-10.3,2.98-16.95,5.13-6.65,10.5-11.06,15.59-7.13,5.09,3.92,5.06,12.5-.07,19.15Z"/>
              <path class="cls-9" d="M20.81,47.97c-1.21,5.04-3.68,8.76-5.51,8.31-1.83-.44-2.33-4.88-1.11-9.92,1.22-5.03,3.69-8.76,5.52-8.31,1.83.44,2.32,4.88,1.11,9.92Z"/>
              <path class="cls-9" d="M23.69,31.43c-.42,1.68-1.76,2.8-2.99,2.49-1.23-.31-1.9-1.92-1.48-3.6.42-1.68,1.76-2.8,2.99-2.49,1.23.31,1.9,1.92,1.48,3.6Z"/>
            </g>
          </g>
        </g>
      </g>
    </g>
  </g>
</svg>