<?xml version="1.0" encoding="UTF-8"?>
<svg id="_Слой_2" data-name="Слой 2" xmlns="http://www.w3.org/2000/svg" xmlns:xlink="http://www.w3.org/1999/xlink" viewBox="0 0 150 150">
  <defs>
    <style>
      .cls-1 {
        fill: #8d2e1c;
      }

      .cls-1, .cls-2, .cls-3, .cls-4, .cls-5, .cls-6, .cls-7, .cls-8, .cls-9, .cls-10, .cls-11, .cls-12, .cls-13, .cls-14, .cls-15, .cls-16, .cls-17, .cls-18, .cls-19, .cls-20, .cls-21, .cls-22, .cls-23, .cls-24, .cls-25, .cls-26, .cls-27, .cls-28, .cls-29, .cls-30, .cls-31, .cls-32, .cls-33, .cls-34, .cls-35, .cls-36, .cls-37, .cls-38, .cls-39, .cls-40, .cls-41, .cls-42, .cls-43, .cls-44, .cls-45, .cls-46, .cls-47, .cls-48, .cls-49, .cls-50, .cls-51, .cls-52, .cls-53, .cls-54, .cls-55 {
        stroke-width: 0px;
      }

      .cls-2 {
        fill: #bd3e26;
      }

      .cls-3 {
        fill: #a23521;
      }

      .cls-4 {
        fill: #133441;
      }

      .cls-5 {
        fill: #9a331f;
      }

      .cls-6 {
        fill: #bb3d26;
      }

      .cls-7 {
        fill: #97321e;
      }

      .cls-8 {
        fill: #92301d;
      }

      .cls-9 {
        fill: #b73c25;
      }

      .cls-10 {
        fill: #b43b24;
      }

      .cls-11 {
        fill: #b03a23;
      }

      .cls-56 {
        clip-path: url(#clippath);
      }

      .cls-12 {
        fill: none;
      }

      .cls-13 {
        fill: #9f3420;
      }

      .cls-14 {
        fill: #b13a24;
      }

      .cls-15 {
        fill: #b93d25;
      }

      .cls-16 {
        fill: #a13520;
      }

      .cls-17 {
        fill: #cff3f7;
      }

      .cls-18 {
        fill: #def5f7;
      }

      .cls-19 {
        fill: #902f1d;
      }

      .cls-20 {
        fill: #a53621;
      }

      .cls-21 {
        fill: #ae3923;
      }

      .cls-22 {
        fill: #a63621;
      }

      .cls-23 {
        fill: #a73721;
      }

      .cls-24 {
        fill: #9c331f;
      }

      .cls-25 {
        fill: #af3923;
      }

      .cls-26 {
        fill: #ba3d25;
      }

      .cls-27 {
        fill: #8c2e1c;
      }

      .cls-28 {
        fill: #ac3822;
      }

      .cls-29 {
        fill: #ace2e6;
      }

      .cls-30 {
        fill: #b83c25;
      }

      .cls-31 {
        fill: #a83722;
      }

      .cls-32 {
        fill: #ab3822;
      }

      .cls-33 {
        fill: #99321f;
      }

      .cls-34 {
        fill: #a33621;
      }

      .cls-35 {
        fill: #a93722;
      }

      .cls-36 {
        fill: #a03520;
      }

      .cls-37 {
        fill: #b23a24;
      }

      .cls-38 {
        fill: #aa3822;
      }

      .cls-39 {
        fill: #ad3923;
      }

      .cls-40 {
        fill: #96311e;
      }

      .cls-41 {
        fill: #93301d;
      }

      .cls-42 {
        fill: #9d3420;
      }

      .cls-43 {
        fill: #9e3420;
      }

      .cls-44 {
        fill: #8e2f1c;
      }

      .cls-45 {
        fill: #b33b24;
      }

      .cls-46 {
        fill: #98321f;
      }

      .cls-47 {
        fill: #95311e;
      }

      .cls-48 {
        fill: #91301d;
      }

      .cls-49 {
        fill: #b53b24;
      }

      .cls-50 {
        fill: #fff;
      }

      .cls-51 {
        fill: #b63c25;
      }

      .cls-52 {
        fill: #94311e;
      }

      .cls-53 {
        fill: #9b331f;
      }

      .cls-54 {
        fill: #bc3e26;
      }

      .cls-55 {
        fill: #8f2f1d;
      }
    </style>
    <clipPath id="clippath">
      <polygon class="cls-12" points="95.48 128.83 61.82 128.83 69.42 86.86 87.9 86.86 95.48 128.83"/>
    </clipPath>
  </defs>
  <g id="Layer_1" data-name="Layer 1">
    <g>
      <g>
        <circle class="cls-18" cx="75" cy="75" r="75"/>
        <circle class="cls-17" cx="75" cy="75" r="71.78"/>
        <path class="cls-29" d="M75,116.58c-34.64,0-63.5-24.74-69.89-57.51-.87,4.44-1.33,9.02-1.33,13.71,0,39.33,31.89,71.22,71.22,71.22s71.22-31.89,71.22-71.22c0-4.69-.47-9.27-1.33-13.71-6.39,32.77-35.25,57.51-69.89,57.51Z"/>
        <path class="cls-50" d="M68.55,17.83c2.32,6.27-4.69,12.16-14.25,15.69-9.56,3.53-18.04,3.37-20.36-2.89-2.32-6.27,3.54-14.21,13.1-17.74,9.56-3.53,19.19-1.32,21.51,4.95Z"/>
        <ellipse class="cls-50" cx="24.62" cy="44.2" rx="6.71" ry="5.61" transform="translate(-24.4 31.68) rotate(-46.55)"/>
        <path class="cls-50" d="M124.68,110.76c2.35,2.24,1.81,6.62-1.2,9.79-3.01,3.16-7.35,3.9-9.7,1.66-2.35-2.24-1.81-6.62,1.2-9.79,3.01-3.16,7.35-3.9,9.7-1.66Z"/>
      </g>
      <g>
        <path class="cls-4" d="M103.15,30.8c0,10.18-.15,18.44-1.55,18.44s-1.55-8.26-1.55-18.44.02-18.45,1.55-18.45,1.55,8.26,1.55,18.45Z"/>
        <path class="cls-4" d="M111.72,30.8c0,12.96.1,23.47-1.55,23.47s-1.55-10.51-1.55-23.47-.41-23.47,1.55-23.47,1.55,10.51,1.55,23.47Z"/>
        <path class="cls-4" d="M119.61,30.8c0,10.18.12,18.44-1.55,18.44s-1.55-8.26-1.55-18.44.3-18.45,1.55-18.45,1.55,8.26,1.55,18.45Z"/>
        <path class="cls-4" d="M128.16,30.8c0,6.61.12,11.98-1.55,11.98s-1.55-5.37-1.55-11.98.3-11.98,1.55-11.98,1.55,5.37,1.55,11.98Z"/>
      </g>
      <polygon class="cls-50" points="87.9 87.31 69.42 87.31 61.82 129.28 95.48 129.28 87.9 87.31"/>
      <g class="cls-56">
        <rect class="cls-27" x="61.82" y="86.86" width="33.66" height="41.97"/>
        <path class="cls-27" d="M78.75,108.29c6.72,0,13.12.51,18.95,1.44h-1.58v19.73h-34.93v-19.73h-1.39c5.82-.93,12.23-1.44,18.95-1.44Z"/>
        <path class="cls-1" d="M78.75,108.51c6.64,0,12.97.51,18.73,1.43h-1.36v19.53h-34.93v-19.53h-1.17c5.76-.92,12.08-1.43,18.73-1.43Z"/>
        <path class="cls-44" d="M78.75,108.72c6.56,0,12.82.5,18.51,1.41h-1.14v19.34h-34.93v-19.34h-.95c5.69-.91,11.94-1.41,18.51-1.41Z"/>
        <path class="cls-55" d="M78.75,108.93c6.49,0,12.67.5,18.29,1.39h-.92v19.14h-34.93v-19.14h-.73c5.62-.9,11.8-1.39,18.29-1.39Z"/>
        <path class="cls-19" d="M78.75,109.15c6.41,0,12.51.49,18.07,1.38h-.7v18.94h-34.93v-18.94h-.51c5.55-.89,11.66-1.38,18.07-1.38Z"/>
        <path class="cls-48" d="M78.75,109.36c6.33,0,12.36.48,17.85,1.36h-.48v18.75h-34.93v-18.75h-.28c5.49-.88,11.52-1.36,17.85-1.36Z"/>
        <path class="cls-8" d="M78.75,109.57c6.25,0,12.21.48,17.63,1.34h-.26v18.55h-34.93v-18.55h-.06c5.42-.86,11.37-1.34,17.63-1.34Z"/>
        <path class="cls-41" d="M78.75,109.79c6.17,0,12.06.47,17.4,1.33h-.04v18.35h-34.93v-17.64h-3.75c1.27-.26,2.57-.5,3.91-.71,5.35-.85,11.23-1.33,17.41-1.33Z"/>
        <path class="cls-52" d="M78.75,110c6.1,0,11.9.47,17.18,1.31,1.32.21,2.61.44,3.86.7h-3.68v17.45h-34.93v-17.45h-3.48c1.25-.26,2.54-.49,3.86-.7,5.28-.84,11.09-1.31,17.18-1.31Z"/>
        <path class="cls-47" d="M78.75,110.21c6.02,0,11.75.46,16.96,1.29,1.3.21,2.57.44,3.81.69h-3.41v17.27h-34.93v-17.27h-3.21c1.24-.25,2.51-.48,3.81-.69,5.21-.83,10.95-1.29,16.96-1.29Z"/>
        <path class="cls-40" d="M78.75,110.43c5.94,0,11.6.45,16.74,1.27,1.29.21,2.54.43,3.76.68h-3.14v17.08h-34.93v-17.08h-2.94c1.22-.25,2.47-.48,3.76-.68,5.15-.82,10.8-1.27,16.74-1.27Z"/>
        <path class="cls-7" d="M78.75,110.64c5.86,0,11.45.45,16.52,1.26,1.27.2,2.51.43,3.71.67h-2.87v16.89h-34.93v-16.89h-2.67c1.2-.25,2.44-.47,3.71-.67,5.08-.81,10.66-1.26,16.52-1.26Z"/>
        <path class="cls-46" d="M78.75,110.85c5.78,0,11.29.44,16.3,1.24,1.25.2,2.47.42,3.66.67h-2.6v16.7h-34.93v-16.7h-2.4c1.19-.24,2.41-.47,3.66-.67,5.01-.8,10.52-1.24,16.3-1.24Z"/>
        <path class="cls-33" d="M78.75,111.07c5.71,0,11.14.44,16.08,1.22,1.24.2,2.44.42,3.61.66h-2.33v16.52h-34.93v-16.52h-2.13c1.17-.24,2.38-.46,3.61-.66,4.94-.79,10.38-1.22,16.08-1.22Z"/>
        <path class="cls-5" d="M78.75,111.28c5.63,0,10.99.43,15.86,1.21,1.22.19,2.41.41,3.56.65h-2.06v16.33h-34.93v-16.33h-1.86c1.15-.24,2.34-.45,3.56-.65,4.88-.78,10.24-1.21,15.86-1.21Z"/>
        <path class="cls-53" d="M78.75,111.49c5.55,0,10.83.42,15.64,1.19,1.2.19,2.37.4,3.51.64h-1.79v16.14h-34.93v-16.14h-1.6c1.14-.23,2.31-.45,3.51-.64,4.81-.77,10.09-1.19,15.64-1.19Z"/>
        <path class="cls-24" d="M78.75,111.71c5.47,0,10.68.42,15.42,1.17,1.19.19,2.34.4,3.46.63h-1.52v15.95h-34.93v-15.95h-1.33c1.12-.23,2.28-.44,3.46-.63,4.74-.76,9.95-1.17,15.42-1.17Z"/>
        <path class="cls-42" d="M78.75,111.92c5.39,0,10.53.41,15.2,1.16,1.17.19,2.31.39,3.41.62h-1.25v15.77h-34.93v-15.03h-4.28c2.08-.53,4.3-.99,6.63-1.36,4.67-.75,9.81-1.16,15.2-1.16Z"/>
        <path class="cls-43" d="M78.75,112.14c5.31,0,10.38.41,14.98,1.14,2.3.37,4.49.82,6.54,1.34h-4.15v14.85h-34.93v-14.85h-3.96c2.05-.52,4.24-.97,6.54-1.34,4.6-.73,9.67-1.14,14.98-1.14Z"/>
        <path class="cls-13" d="M78.75,112.35c5.24,0,10.22.4,14.76,1.12,2.27.36,4.42.8,6.44,1.32h-3.84v14.67h-34.93v-14.67h-3.64c2.02-.51,4.17-.96,6.44-1.32,4.54-.72,9.53-1.12,14.76-1.12Z"/>
        <path class="cls-36" d="M78.75,112.56c5.16,0,10.07.39,14.54,1.11,2.23.36,4.36.79,6.35,1.3h-3.52v14.5h-34.93v-14.5h-3.33c1.99-.51,4.11-.94,6.35-1.3,4.47-.71,9.38-1.11,14.54-1.11Z"/>
        <path class="cls-16" d="M78.75,112.78c5.08,0,9.92.39,14.32,1.09,2.2.35,4.29.78,6.25,1.28h-3.2v14.32h-34.93v-14.32h-3.01c1.96-.5,4.05-.93,6.25-1.28,4.4-.7,9.24-1.09,14.32-1.09Z"/>
        <path class="cls-3" d="M78.75,112.99c5,0,9.77.38,14.1,1.07,2.17.35,4.23.77,6.15,1.26h-2.89v14.14h-34.93v-14.14h-2.69c1.93-.49,3.99-.91,6.15-1.26,4.33-.69,9.1-1.07,14.1-1.07Z"/>
        <path class="cls-34" d="M78.75,113.2c4.92,0,9.61.38,13.88,1.06,2.13.34,4.16.76,6.06,1.24h-2.57v13.97h-34.93v-13.97h-2.38c1.9-.48,3.92-.9,6.06-1.24,4.27-.68,8.96-1.06,13.88-1.06Z"/>
        <path class="cls-20" d="M78.75,113.42c4.85,0,9.46.37,13.66,1.04,2.1.33,4.09.74,5.96,1.22h-2.25v13.79h-34.93v-13.79h-2.06c1.87-.48,3.86-.89,5.96-1.22,4.2-.67,8.81-1.04,13.66-1.04Z"/>
        <path class="cls-22" d="M78.75,113.63c4.77,0,9.31.36,13.44,1.02,2.07.33,4.03.73,5.87,1.2h-1.94v13.61h-34.93v-13.61h-1.74c1.84-.47,3.8-.87,5.87-1.2,4.13-.66,8.67-1.02,13.44-1.02Z"/>
        <path class="cls-23" d="M78.75,113.84c4.69,0,9.16.36,13.22,1.01,2.03.32,3.96.72,5.77,1.18h-1.62v13.44h-34.93v-13.44h-1.43c1.81-.46,3.74-.86,5.77-1.18,4.06-.65,8.53-1.01,13.22-1.01Z"/>
        <path class="cls-31" d="M78.75,114.06c4.61,0,9,.35,13,.99,2,.32,3.9.71,5.67,1.16h-1.31v13.26h-34.93v-13.26h-1.11c1.78-.45,3.68-.84,5.67-1.16,4-.64,8.39-.99,13-.99Z"/>
        <path class="cls-35" d="M78.75,114.27c4.53,0,8.85.35,12.78.97,1.96.31,3.83.7,5.58,1.14h-.99v13.08h-34.93v-13.08h-.8c1.75-.45,3.61-.83,5.58-1.14,3.93-.63,8.25-.97,12.78-.97Z"/>
        <path class="cls-38" d="M78.75,114.48c4.45,0,8.7.34,12.56.96,1.93.31,3.76.68,5.48,1.12h-.67v12.9h-34.93v-12.9h-.48c1.72-.44,3.55-.81,5.48-1.12,3.86-.62,8.1-.96,12.56-.96Z"/>
        <path class="cls-32" d="M78.75,114.7c4.38,0,8.55.33,12.34.94,1.9.3,3.7.67,5.38,1.1h-.36v12.73h-34.93v-12.73h-.16c1.69-.43,3.49-.8,5.38-1.1,3.79-.61,7.96-.94,12.34-.94Z"/>
        <path class="cls-28" d="M78.75,114.91c4.3,0,8.39.33,12.12.92,1.86.3,3.63.66,5.29,1.08h-.04v12.55h-34.93v-11.87h-2.24c.77-.24,1.57-.46,2.4-.68,1.66-.42,3.43-.79,5.29-1.08,3.72-.59,7.82-.92,12.12-.92Z"/>
        <path class="cls-39" d="M78.75,115.12c8.44,0,16.08,1.29,21.61,3.38h-4.25v10.97h-34.93v-10.97h-4.05c5.53-2.09,13.17-3.38,21.61-3.38Z"/>
        <path class="cls-21" d="M78.75,115.34c8.28,0,15.79,1.27,21.21,3.31h-3.85v10.81h-34.93v-10.81h-3.65c5.43-2.05,12.93-3.31,21.21-3.31Z"/>
        <path class="cls-25" d="M78.75,115.55c8.13,0,15.49,1.24,20.81,3.25h-3.45v10.66h-34.93v-10.66h-3.25c5.33-2.01,12.69-3.25,20.81-3.25Z"/>
        <path class="cls-11" d="M78.75,115.76c7.97,0,15.19,1.22,20.41,3.19h-3.05v10.51h-34.93v-10.51h-2.85c5.22-1.97,12.44-3.19,20.41-3.19Z"/>
        <path class="cls-14" d="M78.75,115.98c7.82,0,14.89,1.19,20.01,3.13h-2.65v10.36h-34.93v-10.36h-2.45c5.12-1.93,12.2-3.13,20.01-3.13Z"/>
        <path class="cls-37" d="M78.75,116.19c7.66,0,14.59,1.17,19.61,3.06h-2.25v10.21h-34.93v-10.21h-2.05c5.02-1.89,11.95-3.06,19.61-3.06Z"/>
        <path class="cls-45" d="M78.75,116.4c7.5,0,14.3,1.15,19.21,3h-1.85v10.06h-34.93v-10.06h-1.65c4.92-1.85,11.71-3,19.21-3Z"/>
        <path class="cls-10" d="M78.75,116.62c7.35,0,14,1.12,18.81,2.94h-1.45v9.91h-34.93v-9.91h-1.25c4.81-1.82,11.47-2.94,18.81-2.94Z"/>
        <path class="cls-49" d="M78.75,116.83c7.19,0,13.7,1.1,18.41,2.88h-1.05v9.76h-34.93v-9.76h-.85c4.71-1.78,11.22-2.88,18.41-2.88Z"/>
        <path class="cls-51" d="M78.75,117.04c7.03,0,13.4,1.08,18.01,2.81h-.65v9.61h-34.93v-9.61h-.45c4.61-1.74,10.98-2.81,18.01-2.81Z"/>
        <path class="cls-9" d="M78.75,117.26c6.88,0,13.11,1.05,17.61,2.75h-.25v9.46h-34.93v-9.46h-.05c4.51-1.7,10.74-2.75,17.61-2.75Z"/>
        <path class="cls-30" d="M78.75,117.47c6.72,0,12.81,1.03,17.21,2.69,1.1.42,2.1.87,2.97,1.36h-2.82v7.95h-34.93v-7.95h-2.63c.87-.49,1.87-.94,2.97-1.36,4.41-1.66,10.49-2.69,17.21-2.69Z"/>
        <path class="cls-15" d="M78.75,117.68c6.57,0,12.51,1,16.81,2.63,1.08.41,2.05.85,2.9,1.33h-2.35v7.83h-34.93v-6.3h-4.35c1.2-1.07,2.94-2.04,5.1-2.85,4.3-1.62,10.25-2.63,16.81-2.63Z"/>
        <path class="cls-26" d="M78.75,117.9c6.41,0,12.21.98,16.41,2.56,2.1.79,3.8,1.74,4.97,2.78h-4.02v6.22h-34.93v-6.22h-3.83c1.17-1.05,2.87-1.99,4.97-2.78,4.2-1.58,10-2.56,16.41-2.56Z"/>
        <path class="cls-6" d="M78.75,118.11c6.25,0,11.91.96,16.01,2.5,2.05.77,3.71,1.69,4.85,2.72h-3.5v6.14h-34.93v-6.14h-3.31c1.15-1.02,2.8-1.94,4.85-2.72,4.1-1.55,9.76-2.5,16.01-2.5Z"/>
        <path class="cls-54" d="M78.75,118.32c6.1,0,11.62.93,15.61,2.44,2,.75,3.61,1.65,4.73,2.65h-2.98v6.05h-34.93v-6.05h-2.78c1.12-1,2.73-1.89,4.73-2.65,4-1.51,9.52-2.44,15.61-2.44Z"/>
        <path class="cls-2" d="M78.75,118.54c11.88,0,21.51,3.63,21.51,8.11,0,2.24-2.41,4.27-6.3,5.74v-2.93h-30.43v2.93c-3.89-1.47-6.3-3.5-6.3-5.74,0-4.48,9.63-8.11,21.51-8.11Z"/>
      </g>
      <path class="cls-50" d="M57.13,73.56c0,8.34-6.76,12.97-15.1,12.97s-15.11-4.63-15.11-12.97,6.76-15.1,15.11-15.1,15.1,6.76,15.1,15.1Z"/>
      <path class="cls-50" d="M125.81,73.49c0,8.34-6.77,13.28-15.11,13.28s-15.1-4.94-15.1-13.28,6.76-15.11,15.1-15.11,15.11,6.77,15.11,15.11Z"/>
      <path class="cls-4" d="M44.43,72.5c0,1.33-1.08,2.41-2.41,2.41s-2.41-1.08-2.41-2.41,1.08-2.41,2.41-2.41,2.41,1.08,2.41,2.41Z"/>
      <path class="cls-4" d="M113.11,72.58c0,1.33-1.08,2.41-2.41,2.41s-2.41-1.08-2.41-2.41,1.08-2.42,2.41-2.42,2.41,1.08,2.41,2.42Z"/>
    </g>
  </g>
</svg>