<?xml version="1.0" encoding="UTF-8"?>
<svg xmlns="http://www.w3.org/2000/svg" viewBox="0 0 150 150">
  <defs>
    <style>
      .cls-1 {
        fill: #133441;
      }

      .cls-1, .cls-2, .cls-3, .cls-4, .cls-5, .cls-6, .cls-7 {
        stroke-width: 0px;
      }

      .cls-2 {
        fill: #cff3f7;
      }

      .cls-3 {
        fill: #def5f7;
      }

      .cls-4 {
        fill: #ace2e6;
      }

      .cls-5 {
        fill: #194556;
      }

      .cls-6 {
        fill: #a0a0a0;
        mix-blend-mode: soft-light;
      }

      .cls-8 {
        isolation: isolate;
      }

      .cls-7 {
        fill: #fff;
      }
    </style>
  </defs>
  <g class="cls-8">
    <g id="_Слой_2" data-name="Слой 2">
      <g id="Layer_1" data-name="Layer 1">
        <g>
          <g>
            <circle class="cls-3" cx="75" cy="75" r="75"/>
            <circle class="cls-2" cx="75" cy="75" r="71.78"/>
            <path class="cls-4" d="M75,116.58c-34.64,0-63.5-24.74-69.89-57.51-.87,4.44-1.33,9.02-1.33,13.71,0,39.33,31.89,71.22,71.22,71.22s71.22-31.89,71.22-71.22c0-4.69-.47-9.27-1.33-13.71-6.39,32.77-35.25,57.51-69.89,57.51Z"/>
            <path class="cls-7" d="M68.55,17.83c2.32,6.27-4.69,12.16-14.25,15.69-9.56,3.53-18.04,3.37-20.36-2.89-2.32-6.27,3.54-14.21,13.1-17.74,9.56-3.53,19.19-1.32,21.51,4.95Z"/>
            <path class="cls-7" d="M29.22,39.31c2.26,2.11,2.04,6.02-.5,8.72-2.54,2.7-6.43,3.18-8.69,1.07-2.26-2.11-2.04-6.02.5-8.72,2.54-2.7,6.43-3.18,8.69-1.07Z"/>
            <path class="cls-7" d="M124.68,110.76c2.35,2.24,1.81,6.62-1.2,9.79-3.01,3.16-7.35,3.9-9.7,1.66-2.35-2.24-1.81-6.62,1.2-9.79,3.01-3.16,7.35-3.9,9.7-1.66Z"/>
          </g>
          <g>
            <path class="cls-7" d="M148.29,59.08c-2.11-1.24-7.48-3.76-15.38-5.44-8.12-1.71-27.89-2.82-45.54,2.07-5.75,1.59-19.23,1.5-24.74,0-17.7-4.83-37.42-3.78-45.55-2.07-7.9,1.67-13.27,4.2-15.39,5.44-.6.35-.31,5.47.65,6.77.62.85,2.71,2.01,4.25,2.81-.05.64-.1,1.28-.1,1.97,0,12.6-1.53,35.09,30.45,35.09,21.96,0,31.56-15.8,33.16-31.33h.08s.87-4.59,4.81-4.59,4.8,4.59,4.8,4.59h.08c1.6,15.53,11.2,31.33,33.17,31.33,31.98,0,30.45-22.48,30.45-35.09,0-.69-.06-1.33-.11-1.97,1.54-.8,3.63-1.96,4.24-2.81.97-1.29,1.25-6.41.65-6.77Z"/>
            <path class="cls-1" d="M148.29,58.06c-2.11-1.24-7.48-3.76-15.38-5.44-8.12-1.71-27.89-2.82-45.54,2.07-5.75,1.59-19.23,1.5-24.74,0-17.7-4.83-37.42-3.78-45.55-2.07-7.9,1.67-13.27,4.2-15.39,5.44-.6.35-.31,5.47.65,6.77.62.85,2.71,2.01,4.25,2.81-.05.64-.1,1.28-.1,1.97,0,12.6-1.53,35.09,30.45,35.09,21.96,0,31.56-15.8,33.16-31.33h.08s.87-4.59,4.81-4.59,4.8,4.59,4.8,4.59h.08c1.6,15.53,11.2,31.33,33.17,31.33,31.98,0,30.45-22.48,30.45-35.09,0-.69-.06-1.33-.11-1.97,1.54-.8,3.63-1.96,4.24-2.81.97-1.29,1.25-6.41.65-6.77Z"/>
            <path class="cls-5" d="M37.17,100.7c-27.09,0-25.79-19.05-25.79-29.72,0-11.71,9.25-14.74,26.7-14.74s27.42,4.6,27.42,13.91c0,14.3-7.81,30.56-28.33,30.56Z"/>
            <path class="cls-7" d="M24.01,63.35c.79,1.83-.39,4.09-2.63,5.05-2.24.96-4.69.26-5.47-1.57-.79-1.83.39-4.09,2.63-5.05,2.24-.96,4.69-.26,5.47,1.57Z"/>
            <path class="cls-5" d="M112.82,100.7c-20.51,0-28.32-16.26-28.32-30.56,0-9.3,9.98-13.91,27.42-13.91s26.7,3.03,26.7,14.74c0,10.67,1.29,29.72-25.79,29.72Z"/>
            <g>
              <path class="cls-6" d="M44.39,56.46l-32.82,23.26c.31,3.81,1.12,7.77,3.14,11.21l43.88-31.09c-3.51-1.8-8.29-2.92-14.2-3.37Z"/>
              <path class="cls-6" d="M65.5,70.14c0-3.33-1.28-6.05-3.72-8.18l-44.95,31.85c3.41,3.74,8.93,6.42,17.89,6.83l29.59-20.97c.81-3.15,1.19-6.39,1.19-9.54Z"/>
            </g>
            <g>
              <path class="cls-6" d="M113.81,56.24l-28.76,20.38c.64,3.76,1.85,7.47,3.72,10.8l41.02-29.07c-4.01-1.44-9.36-2.03-15.98-2.12Z"/>
              <path class="cls-6" d="M138.62,70.97c0-5.09-1.75-8.54-5.17-10.82l-42.73,30.28c3.28,4.4,7.97,7.82,14.31,9.36l33.58-23.79c.03-1.8,0-3.5,0-5.04Z"/>
            </g>
            <path class="cls-7" d="M96.88,63.35c.79,1.83-.39,4.09-2.63,5.05-2.24.96-4.69.26-5.47-1.57-.79-1.83.39-4.09,2.63-5.05,2.24-.96,4.69-.26,5.47,1.57Z"/>
          </g>
          <g>
            <path class="cls-7" d="M75.43,116c-10.64,0-18.4-7.73-18.52-7.85-.85-.86-.83-2.25.03-3.09.86-.85,2.25-.84,3.09.03.59.59,14.63,14.44,30-.06.88-.83,2.26-.79,3.09.09.83.88.79,2.26-.09,3.09-6.19,5.83-12.26,7.79-17.6,7.79Z"/>
            <path class="cls-1" d="M75.43,115.77c-10.64,0-18.4-7.73-18.52-7.85-.85-.86-.83-2.25.03-3.09.86-.84,2.25-.84,3.09.03.59.6,14.63,14.44,30-.06.88-.83,2.26-.79,3.09.09.83.88.79,2.26-.09,3.09-6.19,5.83-12.26,7.79-17.6,7.79Z"/>
          </g>
        </g>
      </g>
    </g>
  </g>
</svg>