<?xml version="1.0" encoding="UTF-8"?>
<svg id="_Слой_2" data-name="Слой 2" xmlns="http://www.w3.org/2000/svg" viewBox="0 0 150 150">
  <defs>
    <style>
      .cls-1 {
        fill: #133441;
      }

      .cls-1, .cls-2, .cls-3, .cls-4, .cls-5 {
        stroke-width: 0px;
      }

      .cls-2 {
        fill: #cff3f7;
      }

      .cls-3 {
        fill: #def5f7;
      }

      .cls-4 {
        fill: #ace2e6;
      }

      .cls-5 {
        fill: #fff;
      }
    </style>
  </defs>
  <g id="Layer_1" data-name="Layer 1">
    <g>
      <g>
        <circle class="cls-3" cx="75" cy="75" r="75"/>
        <circle class="cls-2" cx="75" cy="75" r="71.78"/>
        <path class="cls-4" d="M75,116.58c-34.64,0-63.5-24.74-69.89-57.51-.87,4.44-1.33,9.02-1.33,13.71,0,39.33,31.89,71.22,71.22,71.22s71.22-31.89,71.22-71.22c0-4.69-.47-9.27-1.33-13.71-6.39,32.77-35.25,57.51-69.89,57.51Z"/>
        <path class="cls-5" d="M68.55,17.83c2.32,6.27-4.69,12.16-14.25,15.69-9.56,3.53-18.04,3.37-20.36-2.89-2.32-6.27,3.54-14.21,13.1-17.74,9.56-3.53,19.19-1.32,21.51,4.95Z"/>
        <ellipse class="cls-5" cx="24.62" cy="44.2" rx="6.71" ry="5.61" transform="translate(-24.4 31.68) rotate(-46.55)"/>
        <path class="cls-5" d="M124.68,110.76c2.35,2.24,1.81,6.62-1.2,9.79-3.01,3.16-7.35,3.9-9.7,1.66-2.35-2.24-1.81-6.62,1.2-9.79,3.01-3.16,7.35-3.9,9.7-1.66Z"/>
      </g>
      <g>
        <path class="cls-5" d="M53.04,75.04c0,3.64-1.76,8.91-12.08,8.91s-12.07-5.71-12.07-9.15,3.06-8.8,12.07-8.8,12.08,5.4,12.08,9.03Z"/>
        <path class="cls-5" d="M129.42,70.47c1.17,2.62-.9,9.13-12.63,10.88-11.74,1.74-15.61-3.75-15.26-6.73.28-2.37,5.99-2.64,13.69-3.79,7.7-1.14,13.23-2.53,14.2-.36Z"/>
      </g>
      <g>
        <path class="cls-5" d="M53.04,74.46c0,3.63-1.76,8.91-12.08,8.91s-12.07-5.71-12.07-9.15,3.06-8.8,12.07-8.8,12.08,5.4,12.08,9.03Z"/>
        <path class="cls-5" d="M129.42,70.17c1.17,2.61-.9,9.13-12.63,10.87-11.74,1.74-15.61-3.75-15.26-6.73.28-2.36,5.99-2.64,13.69-3.79,7.7-1.14,13.23-2.53,14.2-.36Z"/>
      </g>
      <path class="cls-5" d="M70.15,105.16c0-1.14,12.38-1.42,23.39-1.42s10.39-6.95,12.08-6.42c1.42.44-1.07,8.75-12.08,8.75s-23.39.23-23.39-.91Z"/>
      <path class="cls-1" d="M70.15,104.81c0-1.14,12.38-1.42,23.39-1.42s10.39-6.95,12.08-6.42c1.42.44-1.07,8.75-12.08,8.75s-23.39.23-23.39-.91Z"/>
      <path class="cls-1" d="M43.75,74.46c0,1.49-1.2,2.7-2.7,2.7s-2.7-1.21-2.7-2.7,1.21-2.7,2.7-2.7,2.7,1.21,2.7,2.7Z"/>
      <circle class="cls-1" cx="115.83" cy="74.46" r="2.7"/>
      <path class="cls-5" d="M93.27,68.24s.88,4.7,2.75,5.01c1.87.31,35.31-12.81,35.31-12.81,0,0-33.47,9.74-34.4,9.42-.94-.31-3.65-1.63-3.65-1.63Z"/>
      <path class="cls-1" d="M93.27,67.94s.88,4.7,2.75,5.01c1.87.31,35.31-12.81,35.31-12.81,0,0-33.47,9.74-34.4,9.42-.94-.31-3.65-1.63-3.65-1.63Z"/>
      <path class="cls-5" d="M59.62,63.66s-20.01-25.98-34.99-7.55c0,0,11.83-22.32,35.35,3.6l2.14-.45s-2.35,4.26-2.5,4.4Z"/>
      <path class="cls-1" d="M59.62,63.28s-20.01-25.98-34.99-7.55c0,0,11.83-22.32,35.35,3.6l2.14-.45s-2.35,4.26-2.5,4.41Z"/>
      <path class="cls-5" d="M103.55,93.03s5.84-1.33,8.23,3.12c0,0-.52-8.04-8.23-3.12Z"/>
      <path class="cls-1" d="M103.5,92.86s5.84-1.33,8.23,3.12c0,0-.52-8.03-8.23-3.12Z"/>
    </g>
  </g>
</svg>