<?xml version="1.0" encoding="UTF-8"?>
<svg id="_Слой_2" data-name="Слой 2" xmlns="http://www.w3.org/2000/svg" viewBox="0 0 150 150">
  <defs>
    <style>
      .cls-1 {
        fill: #133441;
      }

      .cls-1, .cls-2, .cls-3, .cls-4, .cls-5 {
        stroke-width: 0px;
      }

      .cls-2 {
        fill: #cff3f7;
      }

      .cls-3 {
        fill: #def5f7;
      }

      .cls-4 {
        fill: #ace2e6;
      }

      .cls-5 {
        fill: #fff;
      }
    </style>
  </defs>
  <g id="Layer_1" data-name="Layer 1">
    <g>
      <g>
        <circle class="cls-3" cx="75" cy="75" r="75"/>
        <circle class="cls-2" cx="75" cy="75" r="71.78"/>
        <path class="cls-4" d="M75,116.58c-34.64,0-63.5-24.74-69.89-57.51-.87,4.44-1.33,9.02-1.33,13.71,0,39.33,31.89,71.22,71.22,71.22s71.22-31.89,71.22-71.22c0-4.69-.47-9.27-1.33-13.71-6.39,32.77-35.25,57.51-69.89,57.51Z"/>
        <path class="cls-5" d="M68.55,17.83c2.32,6.27-4.69,12.16-14.25,15.69s-18.04,3.37-20.36-2.89c-2.32-6.27,3.54-14.21,13.1-17.74,9.56-3.53,19.19-1.32,21.51,4.95Z"/>
        <path class="cls-5" d="M29.22,39.31c2.26,2.11,2.04,6.02-.5,8.72-2.54,2.7-6.43,3.18-8.69,1.07-2.26-2.11-2.04-6.02.5-8.72,2.54-2.7,6.43-3.18,8.69-1.07Z"/>
        <path class="cls-5" d="M124.68,110.76c2.35,2.24,1.81,6.62-1.2,9.79-3.01,3.16-7.35,3.9-9.7,1.66-2.35-2.24-1.81-6.62,1.2-9.79,3.01-3.16,7.35-3.9,9.7-1.66Z"/>
      </g>
      <g>
        <path class="cls-1" d="M56.49,73.76c0,3-2.2,12.75-15.11,12.75s-15.11-9.76-15.11-12.75,6.77-5.01,15.11-5.01,15.11,2.02,15.11,5.01Z"/>
        <path class="cls-1" d="M23.84,65.19s27.02.28,28.69-.56c1.67-.84,5.05-2.93,5.05-2.93,0,0-1.01,6.55-3.94,8.08-1.72.9-23.38,1.45-24.79,1.11-3.41-.81-5.01-5.71-5.01-5.71Z"/>
        <path class="cls-1" d="M133.51,65.19s-27.02.28-28.69-.56c-1.67-.84-5.05-2.93-5.05-2.93,0,0,1.02,6.55,3.94,8.08,1.72.9,23.39,1.49,24.79,1.11,2.98-.81,5.01-5.71,5.01-5.71Z"/>
        <path class="cls-1" d="M131.53,73.73c0,3-2.39,12.86-15.11,12.86s-15.1-9.87-15.1-12.86,6.76-4.99,15.1-4.99,15.11,1.99,15.11,4.99Z"/>
        <path class="cls-1" d="M104,77.75l-2.69-4.02s.72,10.2,11.62,19.04c0,0-6.95-8.67-8.93-15.02Z"/>
        <path class="cls-1" d="M53.73,77.75l2.69-4.02s-.72,10.2-11.62,19.04c0,0,6.96-8.67,8.93-15.02Z"/>
      </g>
      <g>
        <path class="cls-5" d="M53.46,72.85c.61,2.37-1.76,7.25-12.08,7.25s-12.61-5.11-12.07-7.25c.48-1.9,5.4-2.67,12.07-2.67s11.58.77,12.08,2.67Z"/>
        <path class="cls-5" d="M128.01,72.84c.64,2.27-1.84,7.32-11.59,7.32s-12.24-4.93-11.59-7.32c.51-1.89,5.19-2.68,11.59-2.68s11.07.79,11.59,2.68Z"/>
      </g>
      <path class="cls-5" d="M58.71,117.77c0-1.77,8.92-1.74,19.94-1.74s19.95-.03,19.95,1.74-8.93,1.37-19.95,1.37-19.94.39-19.94-1.37Z"/>
      <path class="cls-1" d="M58.71,117.46c0-1.77,8.92-1.74,19.94-1.74s19.95-.03,19.95,1.74-8.93,1.37-19.95,1.37-19.94.4-19.94-1.37Z"/>
      <circle class="cls-1" cx="41.48" cy="74.46" r="2.7"/>
      <path class="cls-1" d="M118.95,74.46c0,1.49-1.21,2.7-2.7,2.7s-2.7-1.21-2.7-2.7,1.21-2.7,2.7-2.7,2.7,1.21,2.7,2.7Z"/>
    </g>
  </g>
</svg>