<?xml version="1.0" encoding="UTF-8"?>
<svg id="_Слой_2" data-name="Слой 2" xmlns="http://www.w3.org/2000/svg" xmlns:xlink="http://www.w3.org/1999/xlink" viewBox="0 0 150 150">
  <defs>
    <style>
      .cls-1 {
        fill: #133441;
      }

      .cls-1, .cls-2, .cls-3, .cls-4, .cls-5, .cls-6, .cls-7 {
        stroke-width: 0px;
      }

      .cls-2 {
        fill: #e60000;
      }

      .cls-3 {
        fill: url(#radial-gradient);
      }

      .cls-4 {
        fill: #cff3f7;
      }

      .cls-5 {
        fill: #def5f7;
      }

      .cls-6 {
        fill: #ace2e6;
      }

      .cls-7 {
        fill: #fff;
      }
    </style>
    <radialGradient id="radial-gradient" cx="81.6" cy="110.99" fx="81.6" fy="110.99" r="12.57" gradientUnits="userSpaceOnUse">
      <stop offset=".43" stop-color="#bd3e26"/>
      <stop offset="1" stop-color="#8c2e1c"/>
    </radialGradient>
  </defs>
  <g id="Layer_1" data-name="Layer 1">
    <g>
      <g>
        <circle class="cls-5" cx="75" cy="75" r="75"/>
        <circle class="cls-4" cx="75" cy="75" r="71.78"/>
        <path class="cls-6" d="M75,116.58c-34.64,0-63.5-24.74-69.89-57.51-.87,4.44-1.33,9.02-1.33,13.71,0,39.33,31.89,71.22,71.22,71.22s71.22-31.89,71.22-71.22c0-4.69-.47-9.27-1.33-13.71-6.39,32.77-35.25,57.51-69.89,57.51Z"/>
        <path class="cls-7" d="M68.55,17.83c2.32,6.27-4.69,12.16-14.25,15.69-9.56,3.53-18.04,3.37-20.36-2.89-2.32-6.27,3.54-14.21,13.1-17.74,9.56-3.53,19.19-1.32,21.51,4.95Z"/>
        <path class="cls-7" d="M29.22,39.31c2.26,2.11,2.04,6.02-.5,8.72-2.54,2.7-6.43,3.18-8.69,1.07-2.26-2.11-2.04-6.02.5-8.72,2.54-2.7,6.43-3.18,8.69-1.07Z"/>
        <ellipse class="cls-7" cx="119.22" cy="116.48" rx="7.9" ry="5.88" transform="translate(-47.33 122.79) rotate(-46.5)"/>
      </g>
      <g>
        <path class="cls-7" d="M55.65,73.49c0,8.34-6.76,12.01-15.11,12.01s-15.11-3.67-15.11-12.01,6.76-15.11,15.11-15.11,15.11,6.77,15.11,15.11Z"/>
        <path class="cls-7" d="M55.65,73.49c0,8.34-6.76,11.31-15.11,11.31s-15.11-2.96-15.11-11.31,6.76-15.11,15.11-15.11,15.11,6.77,15.11,15.11Z"/>
        <path class="cls-7" d="M130.68,74.23c0,8.34-6.76,1.64-15.1,1.64s-15.11,6.7-15.11-1.64,6.76-15.11,15.11-15.11,15.1,6.77,15.1,15.11Z"/>
        <path class="cls-3" d="M70.33,100.54s6.3.78,11.24.78c8.23,0,15.16-4.45,15.16-4.45,0,0-3.67,9.48-15.47,9.48-8.54,0-10.92-5.81-10.92-5.81Z"/>
        <path class="cls-1" d="M42.96,72.4c0,1.34-1.08,2.41-2.41,2.41s-2.41-1.07-2.41-2.41,1.08-2.4,2.41-2.4,2.41,1.08,2.41,2.4Z"/>
        <path class="cls-1" d="M117.99,72.09c0,1.33-1.08,2.42-2.41,2.42s-2.41-1.08-2.41-2.42,1.08-2.41,2.41-2.41,2.41,1.08,2.41,2.41Z"/>
      </g>
      <g>
        <path class="cls-2" d="M97.27,19.51c-1.46.69-2.09,2.43-1.4,3.89l2.55,5.42-5.35,2.52c-1.46.69-2.09,2.43-1.39,3.89.69,1.46,2.43,2.09,3.89,1.39l7.99-3.76c1.46-.69,2.09-2.43,1.4-3.89l-3.8-8.06c-.69-1.46-2.43-2.09-3.89-1.4Z"/>
        <path class="cls-2" d="M105.75,36.73l-4.76,7.53c-.86,1.37-.46,3.17.91,4.03,1.36.86,3.17.46,4.03-.91l3.2-5.06,5,3.15c1.36.87,3.17.46,4.03-.9.86-1.37.45-3.17-.91-4.03l-7.46-4.72c-1.37-.86-3.17-.46-4.03.91Z"/>
        <path class="cls-2" d="M111.1,31.56l8.76,1.65c1.58.3,3.11-.75,3.41-2.33.3-1.59-.75-3.12-2.33-3.41l-5.88-1.11,1.1-5.81c.3-1.58-.75-3.11-2.33-3.41-1.59-.3-3.12.75-3.41,2.34l-1.64,8.68c-.3,1.59.74,3.12,2.33,3.41Z"/>
      </g>
      <path class="cls-1" d="M96.33,94.06s3.4.1,4.13,2.01c0,0,.36-3.72-4.13-2.01Z"/>
      <path class="cls-6" d="M98.79,79.86s14.15-10.67,33.64,0c0,0-17.17-2.78-33.64,0Z"/>
    </g>
  </g>
</svg>