<?xml version="1.0" encoding="UTF-8"?>
<svg id="_Слой_2" data-name="Слой 2" xmlns="http://www.w3.org/2000/svg" viewBox="0 0 150 150">
  <defs>
    <style>
      .cls-1 {
        fill: #133441;
      }

      .cls-1, .cls-2, .cls-3, .cls-4, .cls-5 {
        stroke-width: 0px;
      }

      .cls-2 {
        fill: #cff3f7;
      }

      .cls-3 {
        fill: #def5f7;
      }

      .cls-4 {
        fill: #ace2e6;
      }

      .cls-5 {
        fill: #fff;
      }
    </style>
  </defs>
  <g id="Layer_1" data-name="Layer 1">
    <g>
      <g>
        <circle class="cls-3" cx="75" cy="75" r="75" transform="translate(-31.07 75) rotate(-45)"/>
        <circle class="cls-2" cx="75" cy="75" r="71.78"/>
        <path class="cls-4" d="M75,116.58c-34.64,0-63.5-24.74-69.89-57.51-.87,4.44-1.33,9.02-1.33,13.71,0,39.33,31.89,71.22,71.22,71.22s71.22-31.89,71.22-71.22c0-4.69-.47-9.27-1.33-13.71-6.39,32.77-35.25,57.51-69.89,57.51Z"/>
        <path class="cls-5" d="M68.55,17.83c2.32,6.27-4.69,12.16-14.25,15.69-9.56,3.53-18.04,3.37-20.36-2.89-2.32-6.27,3.54-14.21,13.1-17.74,9.56-3.53,19.19-1.32,21.51,4.95Z"/>
        <path class="cls-5" d="M29.22,39.31c2.26,2.11,2.04,6.02-.5,8.72-2.54,2.7-6.43,3.18-8.69,1.07s-2.04-6.02.5-8.72c2.54-2.7,6.43-3.18,8.69-1.07Z"/>
        <path class="cls-5" d="M124.68,110.76c2.35,2.24,1.81,6.62-1.2,9.79-3.01,3.16-7.35,3.9-9.7,1.66-2.35-2.24-1.81-6.62,1.2-9.79,3.01-3.16,7.35-3.9,9.7-1.66Z"/>
      </g>
      <g>
        <g>
          <path class="cls-5" d="M124.24,53.86c0,4.26-3.45,1.31-7.71,1.31s-7.71,2.95-7.71-1.31,3.45-7.71,7.71-7.71,7.71,3.45,7.71,7.71Z"/>
          <path class="cls-5" d="M47.65,53.86c0,4.26-3.45,1.31-7.71,1.31s-7.71,2.95-7.71-1.31,3.45-7.71,7.71-7.71,7.71,3.45,7.71,7.71Z"/>
        </g>
        <g>
          <path class="cls-1" d="M124.24,53.56c0,4.26-3.45,1.31-7.71,1.31s-7.71,2.95-7.71-1.31,3.45-7.71,7.71-7.71,7.71,3.45,7.71,7.71Z"/>
          <path class="cls-1" d="M47.65,53.56c0,4.26-3.45,1.31-7.71,1.31s-7.71,2.95-7.71-1.31,3.45-7.71,7.71-7.71,7.71,3.45,7.71,7.71Z"/>
        </g>
      </g>
      <path class="cls-5" d="M78.23,91.7c-11.18,0-22.37-3.64-30.88-10.92-1.1-.94-1.23-2.6-.29-3.7.94-1.1,2.59-1.23,3.7-.29,15.14,12.95,39.79,12.95,54.94,0,1.1-.94,2.76-.81,3.7.29.94,1.1.81,2.76-.29,3.7-8.51,7.28-19.7,10.92-30.87,10.92Z"/>
      <path class="cls-1" d="M78.23,91.21c-11.18,0-22.37-3.64-30.88-10.92-1.1-.94-1.23-2.6-.29-3.7.94-1.1,2.59-1.23,3.7-.29,15.14,12.95,39.79,12.95,54.94,0,1.1-.94,2.76-.81,3.7.29.94,1.1.81,2.76-.29,3.7-8.51,7.28-19.7,10.92-30.87,10.92Z"/>
    </g>
  </g>
</svg>