<?xml version="1.0" encoding="UTF-8"?>
<svg id="_Слой_2" data-name="Слой 2" xmlns="http://www.w3.org/2000/svg" xmlns:xlink="http://www.w3.org/1999/xlink" viewBox="0 0 150 150">
  <defs>
    <style>
      .cls-1 {
        fill: url(#radial-gradient);
      }

      .cls-1, .cls-2, .cls-3, .cls-4, .cls-5, .cls-6, .cls-7, .cls-8, .cls-9, .cls-10 {
        stroke-width: 0px;
      }

      .cls-2 {
        fill: #f25600;
      }

      .cls-3 {
        fill: #cff3f7;
      }

      .cls-4 {
        fill: #def5f7;
      }

      .cls-5 {
        fill: #7dccd1;
      }

      .cls-6 {
        fill: #ace2e6;
      }

      .cls-7 {
        fill: url(#radial-gradient-2);
      }

      .cls-8 {
        fill: url(#radial-gradient-3);
      }

      .cls-9 {
        fill: url(#radial-gradient-4);
      }

      .cls-10 {
        fill: #fff;
      }
    </style>
    <radialGradient id="radial-gradient" cx="107.37" cy="54.96" fx="107.37" fy="54.96" r="1.48" gradientUnits="userSpaceOnUse">
      <stop offset=".15" stop-color="#27405e"/>
      <stop offset=".94" stop-color="#3e5e81"/>
    </radialGradient>
    <radialGradient id="radial-gradient-2" cx="47.86" fx="47.86" r="1.48" xlink:href="#radial-gradient"/>
    <radialGradient id="radial-gradient-3" cx="58.39" cy="71.27" fx="58.39" fy="71.27" r="7.27" xlink:href="#radial-gradient"/>
    <radialGradient id="radial-gradient-4" cx="97.77" cy="71.27" fx="97.77" fy="71.27" r="6.32" xlink:href="#radial-gradient"/>
  </defs>
  <g id="Layer_1" data-name="Layer 1">
    <g>
      <g>
        <circle class="cls-4" cx="75" cy="75" r="75"/>
        <circle class="cls-3" cx="75" cy="75" r="71.78"/>
        <path class="cls-6" d="M75,116.58c-34.64,0-63.5-24.74-69.89-57.51-.87,4.44-1.33,9.02-1.33,13.71,0,39.33,31.89,71.22,71.22,71.22s71.22-31.89,71.22-71.22c0-4.69-.47-9.27-1.33-13.71-6.39,32.77-35.25,57.51-69.89,57.51Z"/>
        <path class="cls-10" d="M68.55,17.83c2.32,6.27-4.69,12.16-14.25,15.69-9.56,3.53-18.04,3.37-20.36-2.89-2.32-6.27,3.54-14.21,13.1-17.74,9.56-3.53,19.19-1.32,21.51,4.95Z"/>
        <path class="cls-10" d="M29.22,39.31c2.26,2.11,2.04,6.02-.5,8.72-2.54,2.7-6.43,3.18-8.69,1.07-2.26-2.11-2.04-6.02.5-8.72,2.54-2.7,6.43-3.18,8.69-1.07Z"/>
        <path class="cls-10" d="M124.68,110.76c2.35,2.24,1.81,6.62-1.2,9.79s-7.35,3.9-9.7,1.66c-2.35-2.24-1.81-6.62,1.2-9.79,3.01-3.16,7.35-3.9,9.7-1.66Z"/>
      </g>
      <path class="cls-10" d="M77.47,65.94c-19.42,1.19-29.08,7.73-29.08,7.73,0,0,6.99-2.36,29.08-2.36s28.92,2.36,28.92,2.36c0,0-4.78-9.21-28.92-7.73Z"/>
      <g>
        <path class="cls-10" d="M94.18,55.4l24.21-11.04s1.48,11.86-6.92,13.31c-8.4,1.46-17.29-2.27-17.29-2.27Z"/>
        <path class="cls-10" d="M60.59,55.4l-24.49-12.3s-1.2,13.11,7.2,14.57c8.4,1.46,17.29-2.27,17.29-2.27Z"/>
      </g>
      <g>
        <path class="cls-1" d="M108.85,54.96c0,.81-.66,1.48-1.48,1.48s-1.48-.66-1.48-1.48.66-1.48,1.48-1.48,1.48.66,1.48,1.48Z"/>
        <path class="cls-7" d="M49.34,54.96c0,.81-.66,1.48-1.48,1.48s-1.48-.66-1.48-1.48.66-1.48,1.48-1.48,1.48.66,1.48,1.48Z"/>
      </g>
      <path class="cls-5" d="M68.54,76.15c1.04-.86,5.18-1.94,9.33-1.95,3.95-.01,8.64.77,9.48,1.95,1.47,2.06-2.99,5.17-9.55,5.17-8.76,0-11.28-3.48-9.26-5.17Z"/>
      <path class="cls-8" d="M68.38,68.86c-5.66.41-9.9,1.44-11.9,2.01-.09-.17-.21-.42-.34-.8-5.17,1.86-7.75,3.6-7.75,3.6,0,0,2.14-.72,7.78-1.36.02-.22.07-.44.14-.66,4.44-1.37,12.08-2.79,12.08-2.79Z"/>
      <path class="cls-9" d="M106.39,73.68s-1.18-2.24-5.26-4.33c-.15.4-.45,1.04-.9,1.59-1.79-.55-6.14-1.73-11.06-2.08,0,0,7.01,1.41,11.07,2.67.18.21.42.54.6,1.05,4,.56,5.56,1.09,5.56,1.09Z"/>
      <g>
        <path class="cls-2" d="M94.87,8.3c-1.59.26-2.67,1.77-2.41,3.36l.97,5.91-5.83.96c-1.59.26-2.67,1.77-2.41,3.36.26,1.59,1.76,2.67,3.36,2.41l8.71-1.43c1.59-.27,2.67-1.77,2.41-3.36l-1.45-8.79c-.26-1.59-1.77-2.67-3.36-2.41Z"/>
        <path class="cls-2" d="M98.71,25.35l-8.73,1.75c-1.59.32-2.61,1.86-2.29,3.45.32,1.58,1.86,2.6,3.44,2.29l5.87-1.18,1.16,5.79c.32,1.58,1.86,2.61,3.44,2.29,1.58-.32,2.61-1.86,2.29-3.44l-1.74-8.66c-.32-1.58-1.86-2.61-3.44-2.29Z"/>
        <path class="cls-2" d="M115.74,19.37l-7.92,3.92c-1.45.72-2.04,2.47-1.33,3.92l3.95,7.99c.72,1.44,2.47,2.04,3.92,1.32,1.45-.71,2.04-2.47,1.33-3.92l-2.65-5.37,5.29-2.62c1.45-.71,2.04-2.47,1.33-3.92-.72-1.45-2.47-2.04-3.92-1.33Z"/>
        <path class="cls-2" d="M107.03,19.89l8.48-2.73c1.54-.5,2.38-2.15,1.89-3.68-.5-1.54-2.14-2.38-3.68-1.89l-5.7,1.84-1.81-5.62c-.49-1.53-2.14-2.38-3.68-1.88-1.54.49-2.38,2.14-1.88,3.68l2.71,8.41c.49,1.53,2.14,2.38,3.68,1.89Z"/>
      </g>
    </g>
  </g>
</svg>