<?xml version="1.0" encoding="UTF-8"?>
<svg id="_Слой_2" data-name="Слой 2" xmlns="http://www.w3.org/2000/svg" viewBox="0 0 150 150">
  <defs>
    <style>
      .cls-1 {
        fill: #133441;
      }

      .cls-1, .cls-2, .cls-3, .cls-4, .cls-5 {
        stroke-width: 0px;
      }

      .cls-2 {
        fill: #cff3f7;
      }

      .cls-3 {
        fill: #def5f7;
      }

      .cls-4 {
        fill: #ace2e6;
      }

      .cls-5 {
        fill: #fff;
      }
    </style>
  </defs>
  <g id="Layer_1" data-name="Layer 1">
    <g>
      <g>
        <circle class="cls-3" cx="75" cy="75" r="75"/>
        <circle class="cls-2" cx="75" cy="75" r="71.78"/>
        <path class="cls-4" d="M75,116.58c-34.64,0-63.5-24.74-69.89-57.51-.87,4.44-1.33,9.02-1.33,13.71,0,39.33,31.89,71.22,71.22,71.22s71.22-31.89,71.22-71.22c0-4.69-.47-9.27-1.33-13.71-6.39,32.77-35.25,57.51-69.89,57.51Z"/>
        <path class="cls-5" d="M68.55,17.83c2.32,6.27-4.69,12.16-14.25,15.69-9.56,3.53-18.04,3.37-20.36-2.89-2.32-6.27,3.54-14.21,13.1-17.74,9.56-3.53,19.19-1.32,21.51,4.95Z"/>
        <path class="cls-5" d="M29.22,39.31c2.26,2.11,2.04,6.02-.5,8.72-2.54,2.7-6.43,3.18-8.69,1.07-2.26-2.11-2.04-6.02.5-8.72,2.54-2.7,6.43-3.18,8.69-1.07Z"/>
        <path class="cls-5" d="M124.68,110.76c2.35,2.24,1.81,6.62-1.2,9.79-3.01,3.16-7.35,3.9-9.7,1.66s-1.81-6.62,1.2-9.79c3.01-3.16,7.35-3.9,9.7-1.66Z"/>
      </g>
      <g>
        <path class="cls-5" d="M53,74.3c0,8.34-6.77,11.31-15.11,11.31s-15.11-2.96-15.11-11.31,6.76-15.1,15.11-15.1,15.11,6.77,15.11,15.1Z"/>
        <path class="cls-5" d="M128.02,74.23c0,8.34-6.77,11.61-15.11,11.61s-15.11-3.26-15.11-11.61,6.77-15.11,15.11-15.11,15.11,6.77,15.11,15.11Z"/>
        <path class="cls-5" d="M85.72,131.39s-6.3.64-11.24.64-11.16-.64-11.16-.64c0,0,2.93-5.81,11.48-5.81s10.92,5.81,10.92,5.81Z"/>
        <path class="cls-1" d="M85.72,131.39s-6.3.25-11.24.25-11.16-.25-11.16-.25c0,0,2.93-5.81,11.48-5.81s10.92,5.81,10.92,5.81Z"/>
        <path class="cls-1" d="M40.29,72.4c0,1.34-1.08,2.41-2.41,2.41s-2.41-1.07-2.41-2.41,1.08-2.4,2.41-2.4,2.41,1.08,2.41,2.4Z"/>
        <path class="cls-1" d="M115.33,72.48c0,1.33-1.08,2.41-2.41,2.41s-2.41-1.08-2.41-2.41,1.08-2.41,2.41-2.41,2.41,1.08,2.41,2.41Z"/>
      </g>
    </g>
  </g>
</svg>