<?xml version="1.0" encoding="UTF-8"?>
<svg id="_Слой_2" data-name="Слой 2" xmlns="http://www.w3.org/2000/svg" viewBox="0 0 150 150">
  <defs>
    <style>
      .cls-1 {
        fill: #133441;
      }

      .cls-1, .cls-2, .cls-3, .cls-4, .cls-5, .cls-6 {
        stroke-width: 0px;
      }

      .cls-2 {
        fill: #cff3f7;
      }

      .cls-3 {
        fill: #def5f7;
      }

      .cls-4 {
        fill: #ace2e6;
      }

      .cls-5 {
        fill: #fff;
      }

      .cls-6 {
        fill: #7d8e9d;
      }
    </style>
  </defs>
  <g id="Layer_1" data-name="Layer 1">
    <g>
      <g>
        <circle class="cls-3" cx="75" cy="75" r="75" transform="translate(-31.07 75) rotate(-45)"/>
        <circle class="cls-2" cx="75" cy="75" r="71.78"/>
        <path class="cls-4" d="M75,116.58c-34.64,0-63.5-24.74-69.89-57.51-.87,4.44-1.33,9.02-1.33,13.71,0,39.33,31.89,71.22,71.22,71.22s71.22-31.89,71.22-71.22c0-4.69-.47-9.27-1.33-13.71-6.39,32.77-35.25,57.51-69.89,57.51Z"/>
        <path class="cls-5" d="M68.55,17.83c2.32,6.27-4.69,12.16-14.25,15.69-9.56,3.53-18.04,3.37-20.36-2.89-2.32-6.27,3.54-14.21,13.1-17.74,9.56-3.53,19.19-1.32,21.51,4.95Z"/>
        <ellipse class="cls-5" cx="24.62" cy="44.2" rx="6.71" ry="5.61" transform="translate(-24.4 31.68) rotate(-46.55)"/>
        <path class="cls-5" d="M124.68,110.76c2.35,2.24,1.81,6.62-1.2,9.79-3.01,3.16-7.35,3.9-9.7,1.66-2.35-2.24-1.81-6.62,1.2-9.79,3.01-3.16,7.35-3.9,9.7-1.66Z"/>
      </g>
      <g>
        <path class="cls-5" d="M127.13,82.72s-8.8,26.83-49.32,26.83-49.33-26.83-49.33-26.83c0,0,22.08-7.9,49.33-7.9s49.32,7.9,49.32,7.9Z"/>
        <g>
          <path class="cls-6" d="M86.77,91.55s21.84-.8,34.4-3.58c.71.72,1.14,1.68.31,4.13,4.25-5.12,5.64-9.38,5.64-9.38,0,0-1.68-.6-4.69-1.48.18,1.27-.18,3.08-1.7,4.6-4.45,1.17-21.3,4.89-33.97,5.7Z"/>
          <path class="cls-6" d="M67.81,91.55c-12.59-.8-29.4-5.09-33.94-6.29-.73-1.58-.9-2.93-.44-4.09-3.17.91-4.95,1.55-4.95,1.55,0,0,1.28,3.88,5.09,8.7-.26-1.76-.26-3.38.35-4.01,12.56,2.76,33.88,4.15,33.88,4.15Z"/>
        </g>
      </g>
      <polygon class="cls-5" points="130.24 66.48 131.5 75.68 140.7 76.94 131.5 78.21 130.24 87.4 128.97 78.21 119.78 76.94 128.97 75.68 130.24 66.48"/>
      <g>
        <g>
          <polygon class="cls-5" points="123.28 55.81 130.91 52.09 130.81 51.68 107.27 54.98 107.25 55.31 126.71 66.44 131.16 60.32 131.19 59.93 123.28 55.81"/>
          <polygon class="cls-5" points="28.64 45.71 24.68 51.74 24.72 52.19 32.32 55.81 24.43 59.99 24.49 60.55 28.88 66.44 48.35 55.31 48.35 54.98 28.64 45.71"/>
        </g>
        <g>
          <polygon class="cls-1" points="123.28 55.47 130.91 51.75 126.96 45.36 107.25 54.97 126.71 66.1 131.16 59.97 123.28 55.47"/>
          <polygon class="cls-1" points="24.68 51.75 32.32 55.47 24.44 59.97 28.88 66.1 48.35 54.97 28.64 45.36 24.68 51.75"/>
        </g>
      </g>
    </g>
  </g>
</svg>