<?xml version="1.0" encoding="UTF-8"?>
<svg id="_Слой_2" data-name="Слой 2" xmlns="http://www.w3.org/2000/svg" viewBox="0 0 150 150">
  <defs>
    <style>
      .cls-1 {
        fill: #e85f45;
      }

      .cls-1, .cls-2, .cls-3, .cls-4, .cls-5, .cls-6, .cls-7, .cls-8 {
        stroke-width: 0px;
      }

      .cls-2 {
        fill: #bd3e26;
      }

      .cls-3 {
        fill: #133441;
      }

      .cls-4 {
        fill: #cff3f7;
      }

      .cls-5 {
        fill: #def5f7;
      }

      .cls-6 {
        fill: #ace2e6;
      }

      .cls-7 {
        fill: #fe8872;
      }

      .cls-8 {
        fill: #fff;
      }
    </style>
  </defs>
  <g id="Layer_1" data-name="Layer 1">
    <g>
      <g>
        <circle class="cls-5" cx="75" cy="75" r="75"/>
        <circle class="cls-4" cx="75" cy="75" r="71.78"/>
        <path class="cls-6" d="M75,116.58c-34.64,0-63.5-24.74-69.89-57.51-.87,4.44-1.33,9.02-1.33,13.71,0,39.33,31.89,71.22,71.22,71.22s71.22-31.89,71.22-71.22c0-4.69-.47-9.27-1.33-13.71-6.39,32.77-35.25,57.51-69.89,57.51Z"/>
        <path class="cls-8" d="M68.55,17.83c2.32,6.27-4.69,12.16-14.25,15.69-9.56,3.53-18.04,3.37-20.36-2.89-2.32-6.27,3.54-14.21,13.1-17.74,9.56-3.53,19.19-1.32,21.51,4.95Z"/>
        <path class="cls-8" d="M29.22,39.31c2.26,2.11,2.04,6.02-.5,8.72-2.54,2.7-6.43,3.18-8.69,1.07-2.26-2.11-2.04-6.02.5-8.72,2.54-2.7,6.43-3.18,8.69-1.07Z"/>
        <ellipse class="cls-8" cx="119.22" cy="116.48" rx="7.9" ry="5.88" transform="translate(-47.33 122.79) rotate(-46.5)"/>
      </g>
      <g>
        <path class="cls-2" d="M76.91,106.5c6.85,0,9.72-.74,9.72-2.16s-4.87,0-9.7,0-9.63-1.49-9.63,0,2.75,2.16,9.61,2.16Z"/>
        <g>
          <path class="cls-1" d="M90.02,109.96c-2.94-6.78-10.2-5.18-13.01-5.18s-10.09-1.6-13.02,5.18c-4.44,10.32,1.59,17.33,13.02,17.33s17.2-7.68,13.01-17.33Z"/>
          <path class="cls-7" d="M89.22,109.44c-2.78-6.14-8.33-4.43-12.21-4.43s-9.45-1.72-12.21,4.43c-4.2,9.35,1.41,15.71,12.21,15.71s16.17-6.97,12.21-15.71Z"/>
          <path class="cls-1" d="M77.55,104.83h-.78c-.02,1.12.32,9.89.32,9.89,0,0,.53-8.76.46-9.89Z"/>
        </g>
      </g>
      <g>
        <g>
          <polygon class="cls-8" points="129.58 74.62 126.63 69.25 107.07 79.99 127.05 87.36 129.17 81.62 121.79 78.9 129.58 74.62"/>
          <polygon class="cls-8" points="24.36 74.62 32.14 78.9 24.77 81.62 26.89 87.36 46.86 79.99 27.3 69.25 24.36 74.62"/>
        </g>
        <g>
          <polygon class="cls-3" points="129.58 74.14 126.63 68.78 107.07 79.52 127.05 86.88 129.17 81.14 121.79 78.42 129.58 74.14"/>
          <polygon class="cls-3" points="24.36 74.14 32.14 78.42 24.77 81.14 26.89 86.88 46.86 79.52 27.3 68.78 24.36 74.14"/>
        </g>
      </g>
      <g>
        <path class="cls-3" d="M101.76,92.59c-3.24,2.73-5.37,7.29-5.37,12.46s2.13,9.73,5.37,12.47c-2.13-6.72-1.97-18.39,0-24.93Z"/>
        <path class="cls-3" d="M52.18,92.59c3.24,2.73,5.37,7.29,5.37,12.46s-2.13,9.73-5.37,12.47c1.61-8.04,1.44-17.9,0-24.93Z"/>
      </g>
      <path class="cls-3" d="M89.58,65.21s-.44,7.44,1.97,9.4c0,0-6.14,1.48-1.97-9.4Z"/>
      <path class="cls-3" d="M65.05,65.21s.44,7.44-1.97,9.4c0,0,5.35.35,1.97-9.4Z"/>
      <g>
        <g>
          <path class="cls-8" d="M92.38,69.59s.25,3.2,1.72,3.7c1.48.49,27.51-16.63,27.51-16.63,0,0-25.54,14.66-26.77,14.66s-2.46-1.73-2.46-1.73Z"/>
          <path class="cls-3" d="M92.38,69.25s.25,3.2,1.72,3.69c1.48.5,27.47-16.26,27.47-16.26,0,0-25.5,14.29-26.73,14.29s-2.46-1.72-2.46-1.72Z"/>
        </g>
        <g>
          <path class="cls-8" d="M62.8,69.59s-.25,3.2-1.72,3.7c-1.48.49-27.51-16.63-27.51-16.63,0,0,25.54,14.66,26.77,14.66s2.46-1.73,2.46-1.73Z"/>
          <path class="cls-3" d="M62.8,69.25s-.25,3.2-1.72,3.69c-1.48.5-27.47-16.26-27.47-16.26,0,0,25.5,14.29,26.73,14.29s2.46-1.72,2.46-1.72Z"/>
        </g>
      </g>
    </g>
  </g>
</svg>